<?xml version="1.0" encoding="UTF-8" standalone="no"?>
<svg
   xmlns:dc="http://purl.org/dc/elements/1.1/"
   xmlns:cc="http://creativecommons.org/ns#"
   xmlns:rdf="http://www.w3.org/1999/02/22-rdf-syntax-ns#"
   xmlns:svg="http://www.w3.org/2000/svg"
   xmlns="http://www.w3.org/2000/svg"
   xmlns:sodipodi="http://sodipodi.sourceforge.net/DTD/sodipodi-0.dtd"
   xmlns:inkscape="http://www.inkscape.org/namespaces/inkscape"
   viewBox="0.0 0.0 348.0 348.0"
   fill="none"
   version="1.1"
   id="svg2417"
   sodipodi:docname="RGB Maze.svg"
   inkscape:version="0.92.4 (5da689c313, 2019-01-14)">
  <metadata
     id="metadata2423">
    <rdf:RDF>
      <cc:Work
         rdf:about="">
        <dc:format>image/svg+xml</dc:format>
        <dc:type
           rdf:resource="http://purl.org/dc/dcmitype/StillImage" />
        <dc:title></dc:title>
      </cc:Work>
    </rdf:RDF>
  </metadata>
  <defs
     id="defs2421" />
  <sodipodi:namedview
     pagecolor="#ffffff"
     bordercolor="#666666"
     borderopacity="1"
     objecttolerance="10"
     gridtolerance="10"
     guidetolerance="10"
     inkscape:pageopacity="0"
     inkscape:pageshadow="2"
     inkscape:window-width="1366"
     inkscape:window-height="705"
     id="namedview2419"
     showgrid="false"
     inkscape:snap-global="false"
     inkscape:zoom="0.67816092"
     inkscape:cx="-77.415254"
     inkscape:cy="174"
     inkscape:window-x="-8"
     inkscape:window-y="-8"
     inkscape:window-maximized="1"
     inkscape:current-layer="svg2417" />
  <path
     d="M5.079 5.776h336.913v337.67H5.08z"
     stroke-width="2"
     stroke="#000"
     id="path2413" />
  <path
     d="M282.734 40.554c0-8.376 6.966-15.165 15.56-15.165 4.126 0 8.084 1.597 11.001 4.441 2.918 2.844 4.558 6.702 4.558 10.724 0 8.376-6.966 15.165-15.56 15.165-8.593 0-15.559-6.79-15.559-15.165z"
     stroke-width="2"
     stroke="#000"
     id="path2415" />
  <rect
     style="fill:none;fill-opacity:1;stroke:#000000;stroke-width:1.86695659;stroke-miterlimit:4;stroke-dasharray:none;stroke-opacity:1"
     id="rect2968"
     width="197.72626"
     height="48.79406"
     x="34.69619"
     y="27.221615"
     ry="8.369946e-06" />
  <rect
     style="fill:none;fill-opacity:1;stroke:#000000;stroke-width:2;stroke-miterlimit:4;stroke-dasharray:none;stroke-opacity:1"
     id="rect2970"
     width="194.64407"
     height="184.32204"
     x="36.864407"
     y="116.49152"
     ry="9.6118401e-06" />
  <path
     style="fill:none;stroke:#000000;stroke-width:2;stroke-linecap:butt;stroke-linejoin:miter;stroke-miterlimit:4;stroke-dasharray:none;stroke-opacity:1"
     d="M 70.152542,76.677966 V 116.49153"
     id="path2972"
     inkscape:connector-curvature="0" />
  <path
     style="fill:none;stroke:#000000;stroke-width:2;stroke-linecap:butt;stroke-linejoin:miter;stroke-miterlimit:4;stroke-dasharray:none;stroke-opacity:1"
     d="M 192.32203,76.677966 V 115.01695"
     id="path2974"
     inkscape:connector-curvature="0" />
  <path
     style="fill:none;fill-opacity:1;stroke:#000000;stroke-width:2;stroke-miterlimit:4;stroke-dasharray:none;stroke-opacity:1"
     id="path2976"
     sodipodi:type="arc"
     sodipodi:cx="298.26395"
     sodipodi:cy="40.914051"
     sodipodi:rx="28.016949"
     sodipodi:ry="28.016949"
     sodipodi:start="0"
     sodipodi:end="6.2733417"
     sodipodi:open="true"
     d="M 326.2809,40.914051 A 28.016949,28.016949 0 0 1 298.33289,68.930915 28.016949,28.016949 0 0 1 270.24734,41.051944 28.016949,28.016949 0 0 1 298.05711,12.897866 28.016949,28.016949 0 0 1 326.27954,40.638268" />
  <path
     style="fill:none;stroke:#000000;stroke-width:2;stroke-linecap:butt;stroke-linejoin:miter;stroke-opacity:1;stroke-miterlimit:4;stroke-dasharray:none"
     d="M 298.014,135.66102 V 70.779661"
     id="path2982"
     inkscape:connector-curvature="0" />
  <path
     style="fill:none;stroke:#000000;stroke-width:1.69705629;stroke-linecap:butt;stroke-linejoin:miter;stroke-miterlimit:4;stroke-dasharray:none;stroke-opacity:1"
     d="m 230.0339,182.84746 h 26.54238"
     id="path2984"
     inkscape:connector-curvature="0" />
  <g
     id="g2731"
     transform="rotate(-150,294.39508,184.00723)">
    <rect
       ry="9.6118401e-06"
       y="136.49152"
       x="266.89832"
       height="91.423729"
       width="60.457626"
       id="rect2978"
       style="fill:none;fill-opacity:1;stroke:#000000;stroke-width:2;stroke-miterlimit:4;stroke-dasharray:none;stroke-opacity:1" />
    <path
       sodipodi:nodetypes="ccccccc"
       inkscape:connector-curvature="0"
       id="path2988"
       d="m 282.71865,146.14116 6.3485,7.58644 h 15.41459 l 6.83194,-7.24459 -6.76114,-6.76114 h -15.70638 z"
       style="fill:none;stroke:#000000;stroke-width:1.53541386;stroke-linecap:butt;stroke-linejoin:miter;stroke-miterlimit:4;stroke-dasharray:none;stroke-opacity:1" />
    <path
       style="fill:none;stroke:#000000;stroke-width:1.53541386;stroke-linecap:butt;stroke-linejoin:miter;stroke-miterlimit:4;stroke-dasharray:none;stroke-opacity:1"
       d="m 279.75115,150.27581 -7.58644,6.3485 v 15.41459 l 7.24459,6.83194 6.76114,-6.76114 v -15.70638 z"
       id="path2990"
       inkscape:connector-curvature="0"
       sodipodi:nodetypes="ccccccc" />
    <path
       sodipodi:nodetypes="ccccccc"
       inkscape:connector-curvature="0"
       id="path2992"
       d="m 315.75115,150.27581 -7.58644,6.3485 v 15.41459 l 7.24459,6.83194 6.76114,-6.76114 v -15.70638 z"
       style="fill:none;stroke:#000000;stroke-width:1.53541386;stroke-linecap:butt;stroke-linejoin:miter;stroke-miterlimit:4;stroke-dasharray:none;stroke-opacity:1" />
    <path
       style="fill:none;stroke:#000000;stroke-width:1.53541386;stroke-linecap:butt;stroke-linejoin:miter;stroke-miterlimit:4;stroke-dasharray:none;stroke-opacity:1"
       d="m 282.71865,182.14116 6.3485,7.58644 h 15.41459 l 6.83194,-7.24459 -6.76114,-6.76114 h -15.70638 z"
       id="path2994"
       inkscape:connector-curvature="0"
       sodipodi:nodetypes="ccccccc" />
    <path
       sodipodi:nodetypes="ccccccc"
       inkscape:connector-curvature="0"
       id="path2996"
       d="m 279.75115,186.27581 -7.58644,6.3485 v 15.41459 l 7.24459,6.83194 6.76114,-6.76114 v -15.70638 z"
       style="fill:none;stroke:#000000;stroke-width:1.53541386;stroke-linecap:butt;stroke-linejoin:miter;stroke-miterlimit:4;stroke-dasharray:none;stroke-opacity:1" />
    <path
       style="fill:none;stroke:#000000;stroke-width:1.53541386;stroke-linecap:butt;stroke-linejoin:miter;stroke-miterlimit:4;stroke-dasharray:none;stroke-opacity:1"
       d="m 315.75115,186.27581 -7.58644,6.3485 v 15.41459 l 7.24459,6.83194 6.76114,-6.76114 v -15.70638 z"
       id="path2998"
       inkscape:connector-curvature="0"
       sodipodi:nodetypes="ccccccc" />
    <path
       sodipodi:nodetypes="ccccccc"
       inkscape:connector-curvature="0"
       id="path3000"
       d="m 282.71865,218.14116 6.3485,7.58644 h 15.41459 l 6.83194,-7.24459 -6.76114,-6.76114 h -15.70638 z"
       style="fill:none;stroke:#000000;stroke-width:1.53541386;stroke-linecap:butt;stroke-linejoin:miter;stroke-miterlimit:4;stroke-dasharray:none;stroke-opacity:1" />
  </g>
  <path
     style="fill:#ffffff;fill-opacity:1;stroke:#000000;stroke-width:2.83154106;stroke-miterlimit:4;stroke-dasharray:none;stroke-opacity:1"
     id="path3002"
     sodipodi:type="arc"
     sodipodi:cx="82.576271"
     sodipodi:cy="162.20338"
     sodipodi:rx="10.438309"
     sodipodi:ry="10.438309"
     sodipodi:start="0"
     sodipodi:end="6.2733417"
     sodipodi:open="true"
     d="m 93.01458,162.20338 a 10.438309,10.438309 0 0 1 -10.412621,10.43828 10.438309,10.438309 0 0 1 -10.46387,-10.3869 10.438309,10.438309 0 0 1 10.36112,-10.4894 10.438309,10.438309 0 0 1 10.514865,10.33528" />
  <path
     d="m 64.699169,162.20338 a 10.438309,10.438309 0 0 1 -10.412621,10.43828 10.438309,10.438309 0 0 1 -10.46387,-10.3869 10.438309,10.438309 0 0 1 10.36112,-10.4894 10.438309,10.438309 0 0 1 10.514865,10.33528"
     sodipodi:open="true"
     sodipodi:end="6.2733417"
     sodipodi:start="0"
     sodipodi:ry="10.438309"
     sodipodi:rx="10.438309"
     sodipodi:cy="162.20338"
     sodipodi:cx="54.26086"
     sodipodi:type="arc"
     id="path3004"
     style="fill:#ffffff;fill-opacity:1;stroke:#000000;stroke-width:2.83154106;stroke-miterlimit:4;stroke-dasharray:none;stroke-opacity:1" />
  <path
     d="m 93.01458,133.88799 a 10.438309,10.438309 0 0 1 -10.412621,10.43827 10.438309,10.438309 0 0 1 -10.46387,-10.3869 10.438309,10.438309 0 0 1 10.36112,-10.4894 10.438309,10.438309 0 0 1 10.514865,10.33528"
     sodipodi:open="true"
     sodipodi:end="6.2733417"
     sodipodi:start="0"
     sodipodi:ry="10.438309"
     sodipodi:rx="10.438309"
     sodipodi:cy="133.88799"
     sodipodi:cx="82.576271"
     sodipodi:type="arc"
     id="path3006"
     style="fill:#ffffff;fill-opacity:1;stroke:#000000;stroke-width:2.83154106;stroke-miterlimit:4;stroke-dasharray:none;stroke-opacity:1" />
  <path
     style="fill:#ffffff;fill-opacity:1;stroke:#000000;stroke-width:2.83154106;stroke-miterlimit:4;stroke-dasharray:none;stroke-opacity:1"
     id="path3008"
     sodipodi:type="arc"
     sodipodi:cx="110.89168"
     sodipodi:cy="162.20338"
     sodipodi:rx="10.438309"
     sodipodi:ry="10.438309"
     sodipodi:start="0"
     sodipodi:end="6.2733417"
     sodipodi:open="true"
     d="m 121.32999,162.20338 a 10.438309,10.438309 0 0 1 -10.41262,10.43828 10.438309,10.438309 0 0 1 -10.46387,-10.3869 10.438309,10.438309 0 0 1 10.36112,-10.4894 10.438309,10.438309 0 0 1 10.51486,10.33528" />
  <path
     style="fill:#ffffff;fill-opacity:1;stroke:#000000;stroke-width:2.83154106;stroke-miterlimit:4;stroke-dasharray:none;stroke-opacity:1"
     id="path3010"
     sodipodi:type="arc"
     sodipodi:cx="82.576271"
     sodipodi:cy="190.5188"
     sodipodi:rx="10.438309"
     sodipodi:ry="10.438309"
     sodipodi:start="0"
     sodipodi:end="6.2733417"
     sodipodi:open="true"
     d="m 93.01458,190.5188 a 10.438309,10.438309 0 0 1 -10.412621,10.43828 10.438309,10.438309 0 0 1 -10.46387,-10.38691 10.438309,10.438309 0 0 1 10.36112,-10.4894 10.438309,10.438309 0 0 1 10.514865,10.33528" />
  <rect
     style="fill:#ffffff;fill-opacity:1;stroke:#000000;stroke-width:1.94511926;stroke-miterlimit:4;stroke-dasharray:none;stroke-opacity:1"
     id="rect3030"
     width="48.715897"
     height="26.597254"
     x="47.684425"
     y="38.311543"
     ry="9.6317144e-06" />
  <rect
     ry="9.6317144e-06"
     y="38.311543"
     x="107.68443"
     height="26.597254"
     width="48.715897"
     id="rect3032"
     style="fill:#ffffff;fill-opacity:1;stroke:#000000;stroke-width:1.94511926;stroke-miterlimit:4;stroke-dasharray:none;stroke-opacity:1" />
  <rect
     style="fill:#ffffff;fill-opacity:1;stroke:#000000;stroke-width:1.94511926;stroke-miterlimit:4;stroke-dasharray:none;stroke-opacity:1"
     id="rect3034"
     width="48.715897"
     height="26.597254"
     x="167.68443"
     y="38.311543"
     ry="9.6317144e-06" />
  <path
     style="fill:#ffffff;fill-opacity:1;stroke:#000000;stroke-width:2.3637991;stroke-miterlimit:4;stroke-dasharray:none;stroke-opacity:1"
     id="path3036"
     sodipodi:type="arc"
     sodipodi:cx="21.381351"
     sodipodi:cy="130.45523"
     sodipodi:rx="8.7140055"
     sodipodi:ry="8.7140055"
     sodipodi:start="0"
     sodipodi:end="6.2733417"
     sodipodi:open="true"
     d="m 30.095357,130.45523 a 8.7140055,8.7140055 0 0 1 -8.692561,8.71398 8.7140055,8.7140055 0 0 1 -8.735344,-8.67109 8.7140055,8.7140055 0 0 1 8.649567,-8.75666 8.7140055,8.7140055 0 0 1 8.777916,8.62799" />
  <path
     d="m 30.095357,288.23489 a 8.7140055,8.7140055 0 0 1 -8.692561,8.71398 8.7140055,8.7140055 0 0 1 -8.735344,-8.67109 8.7140055,8.7140055 0 0 1 8.649567,-8.75665 8.7140055,8.7140055 0 0 1 8.777916,8.62799"
     sodipodi:open="true"
     sodipodi:end="6.2733417"
     sodipodi:start="0"
     sodipodi:ry="8.7140055"
     sodipodi:rx="8.7140055"
     sodipodi:cy="288.23489"
     sodipodi:cx="21.381351"
     sodipodi:type="arc"
     id="path3038"
     style="fill:#ffffff;fill-opacity:1;stroke:#000000;stroke-width:2.3637991;stroke-miterlimit:4;stroke-dasharray:none;stroke-opacity:1" />
  <path
     d="m 255.70552,130.45523 a 8.7140055,8.7140055 0 0 1 -8.69256,8.71398 8.7140055,8.7140055 0 0 1 -8.73534,-8.67109 8.7140055,8.7140055 0 0 1 8.64956,-8.75666 8.7140055,8.7140055 0 0 1 8.77792,8.62799"
     sodipodi:open="true"
     sodipodi:end="6.2733417"
     sodipodi:start="0"
     sodipodi:ry="8.7140055"
     sodipodi:rx="8.7140055"
     sodipodi:cy="130.45523"
     sodipodi:cx="246.99152"
     sodipodi:type="arc"
     id="path3040"
     style="fill:#ffffff;fill-opacity:1;stroke:#000000;stroke-width:2.3637991;stroke-miterlimit:4;stroke-dasharray:none;stroke-opacity:1" />
  <path
     style="fill:#ffffff;fill-opacity:1;stroke:#000000;stroke-width:2.3637991;stroke-miterlimit:4;stroke-dasharray:none;stroke-opacity:1"
     id="path3042"
     sodipodi:type="arc"
     sodipodi:cx="246.99152"
     sodipodi:cy="288.23489"
     sodipodi:rx="8.7140055"
     sodipodi:ry="8.7140055"
     sodipodi:start="0"
     sodipodi:end="6.2733417"
     sodipodi:open="true"
     d="m 255.70552,288.23489 a 8.7140055,8.7140055 0 0 1 -8.69256,8.71398 8.7140055,8.7140055 0 0 1 -8.73534,-8.67109 8.7140055,8.7140055 0 0 1 8.64956,-8.75665 8.7140055,8.7140055 0 0 1 8.77792,8.62799" />
  <path
     d="m 224.55032,190.22034 a 10.438309,10.438309 0 0 1 -10.41262,10.43827 10.438309,10.438309 0 0 1 -10.46387,-10.3869 10.438309,10.438309 0 0 1 10.36112,-10.4894 10.438309,10.438309 0 0 1 10.51487,10.33528"
     sodipodi:open="true"
     sodipodi:end="6.2733417"
     sodipodi:start="0"
     sodipodi:ry="10.438309"
     sodipodi:rx="10.438309"
     sodipodi:cy="190.22034"
     sodipodi:cx="214.11201"
     sodipodi:type="arc"
     id="path2733"
     style="fill:#000000;fill-opacity:1;stroke:#000000;stroke-width:2.83154106;stroke-miterlimit:4;stroke-dasharray:none;stroke-opacity:1" />
  <path
     style="fill:#000000;fill-opacity:1;stroke:#000000;stroke-width:2.83154106;stroke-miterlimit:4;stroke-dasharray:none;stroke-opacity:1"
     id="path2735"
     sodipodi:type="arc"
     sodipodi:cx="109.4171"
     sodipodi:cy="259"
     sodipodi:rx="10.438309"
     sodipodi:ry="10.438309"
     sodipodi:start="0"
     sodipodi:end="6.2733417"
     sodipodi:open="true"
     d="m 119.85541,259 a 10.438309,10.438309 0 0 1 -10.41262,10.43828 10.438309,10.438309 0 0 1 -10.463873,-10.3869 10.438309,10.438309 0 0 1 10.361123,-10.4894 10.438309,10.438309 0 0 1 10.51486,10.33527" />
  <path
     d="m 199.48253,284.06781 a 10.438309,10.438309 0 0 1 -10.41262,10.43828 10.438309,10.438309 0 0 1 -10.46387,-10.3869 10.438309,10.438309 0 0 1 10.36112,-10.4894 10.438309,10.438309 0 0 1 10.51486,10.33527"
     sodipodi:open="true"
     sodipodi:end="6.2733417"
     sodipodi:start="0"
     sodipodi:ry="10.438309"
     sodipodi:rx="10.438309"
     sodipodi:cy="284.06781"
     sodipodi:cx="189.04422"
     sodipodi:type="arc"
     id="path2737"
     style="fill:#ffffff;fill-opacity:1;stroke:#000000;stroke-width:2.83154106;stroke-miterlimit:4;stroke-dasharray:none;stroke-opacity:1" />
</svg>
